#!OML:ASF H:\Terrain\Patient Classification 1\Terrain2\Thursday\justin.ASF
:FULLY-SPECIFIED
:DEGREES
1493
root 7.91563 17.1619 -21.3703 4.16182 -51.2622 -366.656
lowerback 7.93719 2.79989 7.16782
upperback 2.59575 4.25889 2.42104
thorax -1.40461 2.10449 -1.87086
lowerneck -13.3295 8.64324 -1.75439
upperneck 33.316 14.4798 -4.69224
head 13.8165 5.3059 0.657156
rclavicle -3.8763e-014 -4.77083e-015
rhumerus -31.6172 -10.2022 -75.6389
rradius 31.9107
rwrist -12.3758
rhand -21.8321 14.1043
rfingers 7.12502
rthumb 4.57094 -15.8264
lclavicle -3.8763e-014 -4.77083e-015
lhumerus -35.2836 12.548 74.1519
lradius 38.8396
lwrist 11.3631
lhand -20.2037 25.8543
lfingers 7.12502
lthumb 6.14318 55.7452
rfemur -2.51649 5.84139 23.6542
rtibia 30.2969
rfoot -22.4342 10.4714
rtoes 8.81276
lfemur -16.9673 -16.285 -9.66661
ltibia 34.3513
lfoot 20.3485 -36.2035
ltoes 48.3475
1494
root 7.9082 17.1728 -21.4139 4.25895 -50.7201 -366.568
lowerback 7.90223 2.94671 7.54564
upperback 2.62764 4.47322 2.15682
thorax -1.28205 2.21909 -2.36247
lowerneck -13.3875 8.50722 -1.44066
upperneck 33.3063 14.2271 -4.74924
head 13.8501 5.22919 0.550619
rclavicle -1.00983e-013 -7.95139e-015
rhumerus -31.3954 -10.7091 -75.5615
rradius 31.5449
rwrist -11.8826
rhand -21.447 14.0373
rfingers 7.12502
rthumb 4.94277 -15.885
lclavicle -1.00983e-013 -7.95139e-015
lhumerus -35.2333 12.3861 73.9341
lradius 38.7957
lwrist 11.7375
lhand -20.2511 24.7711
lfingers 7.12502
lthumb 6.09738 54.6633
rfemur -2.52892 5.57993 23.7394
rtibia 29.8514
rfoot -22.3402 10.2709
rtoes 8.21394
lfemur -17.4567 -16.0137 -9.55329
ltibia 34.5103
lfoot 20.0986 -36.3389
ltoes 47.8528
1495
root 7.90197 17.1806 -21.4583 4.4791 -50.0745 -366.63
lowerback 7.96976 3.02261 7.47582
upperback 2.55965 4.5832 2.3781
thorax -1.4043 2.2662 -2.1112
lowerneck -13.1731 8.3593 -1.68886
upperneck 33.1537 14.1412 -5.00449
head 13.7429 5.14651 0.464803
rclavicle -1.68967e-014 2.38542e-014
rhumerus -31.2407 -10.4207 -75.056
rradius 31.2028
rwrist -11.7288
rhand -21.2151 13.7123
rfingers 7.12502
rthumb 5.16664 -16.2047
lclavicle -1.68967e-014 2.38542e-014
lhumerus -35.5704 12.6511 74.1986
lradius 38.9542
lwrist 11.9708
lhand -19.9248 25.1399
lfingers 7.12502
lthumb 6.41243 55.0229
rfemur -2.57419 5.18156 23.9301
rtibia 29.4303
rfoot -22.2617 10.0615
rtoes 7.46601
lfemur -17.9816 -15.7656 -9.33668
ltibia 34.6886
lfoot 19.9935 -36.3004
ltoes 47.6085
1496
root 7.89599 17.1867 -21.502 4.99426 -49.3704 -367.092
lowerback 8.06802 3.04663 7.63665
upperback 2.49521 4.64537 2.71666
thorax -1.53558 2.28806 -1.864
lowerneck -13.1775 8.25225 -1.95374
upperneck 33.2323 14.1612 -5.26509
head 13.7895 5.08385 0.411791
rclavicle 1.9302e-013 1.59028e-015
rhumerus -30.9454 -10.0754 -74.498
rradius 30.7284
rwrist -11.8584
rhand -21.1804 13.6226
rfingers 7.12502
rthumb 5.20013 -16.2936
lclavicle 1.9302e-013 1.59028e-015
lhumerus -36.0652 12.8532 74.5195
lradius 39.2518
lwrist 12.2279
lhand -19.9348 25.8589
lfingers 7.12502
lthumb 6.40277 55.7421
rfemur -2.63952 4.63088 24.3833
rtibia 29.0674
rfoot -22.0108 10.1436
rtoes 6.80277
lfemur -18.4869 -15.6148 -8.83736
ltibia 34.8633
lfoot 19.5047 -36.6671
ltoes 46.4328
1497
root 7.89221 17.1958 -21.5411 5.14008 -48.6158 -367.129
lowerback 8.13259 3.04123 7.84897
upperback 2.48609 4.66235 2.77014
thorax -1.56617 2.29463 -1.93074
lowerneck -13.3743 8.18937 -1.92756
upperneck 33.4708 14.165 -5.41886
head 13.9602 5.04705 0.3635
rclavicle 3.0911e-014 -1.90833e-014
rhumerus -30.6263 -10.1528 -74.1436
rradius 30.2187
rwrist -11.6651
rhand -21.5237 13.8007
rfingers 7.12502
rthumb 4.86871 -16.1234
lclavicle 3.0911e-014 -1.90833e-014
lhumerus -36.6146 12.9991 74.5175
lradius 39.5656
lwrist 12.2064
lhand -19.8357 26.1546
lfingers 7.12502
lthumb 6.49838 56.0349
rfemur -2.66523 4.18727 24.5146
rtibia 28.787
rfoot -21.6661 10.445
rtoes 7.32573
lfemur -18.9247 -15.7137 -8.68295
ltibia 35.001
lfoot 18.0241 -37.463
ltoes 43.787
1498
root 7.88612 17.213 -21.5796 5.22603 -48.2247 -366.906
lowerback 8.07023 3.19703 7.84378
upperback 2.40307 4.86907 2.70899
thorax -1.59506 2.39587 -2.00559
lowerneck -13.3519 8.05524 -1.95018
upperneck 33.6054 13.9912 -5.41181
head 14.0087 4.96491 0.343029
rclavicle -7.84206e-014 -3.18055e-015
rhumerus -30.5632 -10.0272 -73.9123
rradius 29.8971
rwrist -11.8623
rhand -21.1651 14.0873
rfingers 7.12502
rthumb 5.21489 -15.8286
lclavicle -7.84206e-014 -3.18055e-015
lhumerus -37.1703 13.3471 74.318
lradius 39.8959
lwrist 11.4959
lhand -18.7306 27.5955
lfingers 7.12502
lthumb 7.56514 57.4402
rfemur -2.88756 4.00134 24.4143
rtibia 28.5773
rfoot -21.4784 10.6312
rtoes 7.75607
lfemur -19.3788 -15.427 -8.74716
ltibia 35.1004
lfoot 16.9487 -37.763
ltoes 40.1761
1499
root 7.88012 17.2347 -21.6251 5.48233 -47.8535 -366.868
lowerback 8.07787 3.41781 7.7953
upperback 2.24899 5.17251 2.72166
thorax -1.73866 2.539 -1.99584
lowerneck -13.2315 7.8345 -1.99366
upperneck 33.7602 13.6668 -5.34077
head 14.0318 4.82667 0.321699
rclavicle -7.7526e-014 3.97569e-015
rhumerus -30.5841 -9.86013 -73.6348
rradius 29.6083
rwrist -12.26
rhand -20.0027 14.3085
rfingers 7.12502
rthumb 6.33717 -15.5767
lclavicle -7.7526e-014 3.97569e-015
lhumerus -37.58 13.468 74.271
lradius 40.1444
lwrist 11.1314
lhand -17.6644 28.7727
lfingers 7.12502
lthumb 8.59426 58.5778
rfemur -3.22303 3.88051 24.4884
rtibia 28.4117
rfoot -21.2597 10.6851
rtoes 8.71204
lfemur -19.8612 -14.9362 -8.65409
ltibia 35.1962
lfoot 16.7035 -37.6517
ltoes 42.7623
1500
root 7.87881 17.2492 -21.6737 5.73081 -47.0002 -367.13
lowerback 8.26864 3.36936 7.90807
upperback 2.21106 5.14341 2.96855
thorax -1.89954 2.5154 -1.81628
lowerneck -13.1093 7.73018 -2.25101
upperneck 33.7681 13.5843 -5.35421
head 13.989 4.76413 0.338873
rclavicle 6.24184e-014 -3.10104e-014
rhumerus -30.3106 -9.77206 -73.1564
rradius 29.189
rwrist -11.8243
rhand -19.557 14.5193
rfingers 7.12502
rthumb 6.76748 -15.3525
lclavicle 6.24184e-014 -3.10104e-014
lhumerus -37.9361 13.7757 74.4719
lradius 39.9335
lwrist 11.253
lhand -17.9235 27.5575
lfingers 7.12502
lthumb 8.34419 57.3727
rfemur -3.33573 3.52434 24.8835
rtibia 28.2855
rfoot -21.0433 10.5474
rtoes 9.77292
lfemur -20.229 -14.7789 -8.32914
ltibia 35.2772
lfoot 15.3925 -38.0954
ltoes 37.4149
1501
root 7.88101 17.2528 -21.7174 5.94294 -45.9915 -367.496
lowerback 8.47755 3.24326 8.37233
upperback 2.28466 5.03115 3.13096
thorax -1.92147 2.45667 -1.90411
lowerneck -13.2196 7.6385 -2.47015
upperneck 33.7945 13.5071 -5.2972
head 14.0013 4.7096 0.390486
rclavicle -1.90833e-014 -7.23576e-014
rhumerus -29.9013 -10.0733 -72.7038
rradius 28.7358
rwrist -10.9962
rhand -19.6967 14.6693
rfingers 7.12502
rthumb 6.6326 -15.2068
lclavicle -1.90833e-014 -7.23576e-014
lhumerus -38.1248 14.0618 74.5996
lradius 39.606
lwrist 11.0771
lhand -18.8301 25.3005
lfingers 7.12502
lthumb 7.46912 55.1487
rfemur -3.34261 2.86051 25.3473
rtibia 28.1676
rfoot -20.8825 10.4645
rtoes 10.1127
lfemur -20.5278 -14.7043 -7.95154
ltibia 35.3514
lfoot 13.0416 -38.7749
ltoes 34.518
1502
root 7.88614 17.2648 -21.7434 5.58308 -44.873 -367.109
lowerback 8.58082 3.10754 8.6021
upperback 2.34228 4.87554 3.01912
thorax -1.9027 2.38168 -2.13686
lowerneck -13.345 7.50461 -2.37067
upperneck 33.9449 13.334 -5.34525
head 14.1058 4.62967 0.337111
rclavicle -7.58364e-014 5.96354e-014
rhumerus -29.7227 -9.81385 -72.5526
rradius 28.611
rwrist -11.1528
rhand -19.8736 14.181
rfingers 7.12502
rthumb 6.46185 -15.7005
lclavicle -7.58364e-014 5.96354e-014
lhumerus -38.2492 14.204 74.6314
lradius 39.3688
lwrist 10.7502
lhand -19.3931 24.4554
lfingers 7.12502
lthumb 6.9257 54.3222
rfemur -3.25983 1.93225 25.1342
rtibia 28.0112
rfoot -20.73 10.6586
rtoes 11.8715
lfemur -20.754 -15.0006 -8.25292
ltibia 35.4497
lfoot 10.5804 -38.8835
ltoes 32.7111
1503
root 7.88769 17.2797 -21.7656 4.89667 -43.5779 -366.183
lowerback 8.39375 2.8524 8.54244
upperback 2.47925 4.49777 2.72257
thorax -1.67271 2.2099 -2.36327
lowerneck -13.2446 7.43524 -2.11607
upperneck 33.7118 13.222 -5.59354
head 14.02 4.59983 0.175469
rclavicle -5.12864e-014 1.03368e-014
rhumerus -29.3814 -9.40373 -72.6735
rradius 28.4911
rwrist -11.3352
rhand -20.1461 13.4814
rfingers 7.12502
rthumb 6.19875 -16.4079
lclavicle -5.12864e-014 1.03368e-014
lhumerus -38.209 14.5579 74.4298
lradius 38.9393
lwrist 10.1242
lhand -19.2218 25.6176
lfingers 7.12502
lthumb 7.0911 55.4788
rfemur -3.13929 1.00617 24.5335
rtibia 27.8372
rfoot -20.7636 10.5207
rtoes 13.2325
lfemur -20.9999 -15.4114 -9.0098
ltibia 35.5651
lfoot 7.8777 -38.6932
ltoes 31.1097
1504
root 7.87775 17.2818 -21.8048 4.80165 -42.3862 -366.067
lowerback 8.20304 2.70186 8.81013
upperback 2.67465 4.28073 2.61611
thorax -1.35499 2.12063 -2.584
lowerneck -13.2599 7.28149 -2.10672
upperneck 33.3511 12.9676 -5.61071
head 13.8557 4.51514 0.126027
rclavicle -9.74045e-015 -1.82882e-014
rhumerus -28.8782 -10.1753 -72.4382
rradius 28.084
rwrist -10.5205
rhand -20.1041 13.3384
rfingers 7.12502
rthumb 6.23927 -16.5497
lclavicle -9.74045e-015 -1.82882e-014
lhumerus -38.0554 14.7527 74.3039
lradius 38.4998
lwrist 9.51491
lhand -19.0719 26.168
lfingers 7.12502
lthumb 7.23578 56.0243
rfemur -3.06969 0.582318 24.7816
rtibia 27.6803
rfoot -20.8275 9.69694
rtoes 13.0031
lfemur -21.28 -15.2084 -9.02106
ltibia 35.6806
lfoot 5.61734 -38.5439
ltoes 31.7741
1505
root 7.85975 17.2838 -21.8474 5.01602 -41.7579 -366.514
lowerback 8.31498 2.8333 9.0418
upperback 2.76546 4.47929 2.80911
thorax -1.29722 2.22179 -2.52861
lowerneck -13.3638 7.04727 -2.29745
upperneck 33.4285 12.6442 -5.4522
head 13.8748 4.36949 0.173615
rclavicle 1.53064e-014 2.14687e-014
rhumerus -28.7854 -10.7558 -71.8716
rradius 27.9196
rwrist -10.1266
rhand -20.2911 13.5555
rfingers 7.12502
rthumb 6.05881 -16.3378
lclavicle 1.53064e-014 2.14687e-014
lhumerus -38.2027 14.6832 74.5777
lradius 38.1873
lwrist 9.46719
lhand -19.4095 25.0322
lfingers 7.12502
lthumb 6.90985 54.8994
rfemur -2.96362 0.620383 25.4901
rtibia 27.5013
rfoot -20.7802 8.86342
rtoes 12.3836
lfemur -21.3389 -14.5937 -8.59219
ltibia 35.8274
lfoot 2.89307 -38.3415
ltoes 33.336
1506
root 7.84986 17.2899 -21.8818 5.01663 -41.3534 -366.563
lowerback 8.48021 2.97585 8.97718
upperback 2.80067 4.68046 2.91171
thorax -1.34438 2.3193 -2.41117
lowerneck -13.5449 6.87527 -2.37938
upperneck 33.7399 12.4167 -5.30907
head 14.0293 4.25862 0.217828
rclavicle -8.3092e-014 5.56597e-014
rhumerus -28.7566 -10.7445 -71.557
rradius 27.9508
rwrist -10.1823
rhand -20.8319 13.6339
rfingers 7.12502
rthumb 5.5367 -16.2738
lclavicle -8.3092e-014 5.56597e-014
lhumerus -38.436 14.9505 74.6542
lradius 37.7807
lwrist 8.91302
lhand -19.4831 24.2861
lfingers 7.12502
lthumb 6.83879 54.1556
rfemur -2.93444 0.541066 25.7192
rtibia 27.312
rfoot -20.7194 8.40609
rtoes 11.6749
lfemur -21.3643 -13.8533 -8.58666
ltibia 35.9941
lfoot -0.261527 -37.8346
ltoes 34.1243
1507
root 7.84859 17.2938 -21.9136 4.93022 -40.4164 -366.357
lowerback 8.5113 2.85698 8.90406
upperback 2.81796 4.52105 2.94675
thorax -1.36931 2.23949 -2.32464
lowerneck -13.7584 6.75873 -2.39535
upperneck 33.9492 12.2838 -5.28351
head 14.1652 4.18521 0.220767
rclavicle 6.97734e-014 4.29375e-014
rhumerus -28.5666 -10.6346 -71.392
rradius 28.0238
rwrist -10.0049
rhand -21.2765 13.5186
rfingers 7.12502
rthumb 5.10739 -16.3999
lclavicle 6.97734e-014 4.29375e-014
lhumerus -38.6452 15.3721 74.5722
lradius 37.3223
lwrist 8.21952
lhand -19.3196 24.5756
lfingers 7.12502
lthumb 6.99662 54.44
rfemur -3.00673 0.215204 25.7687
rtibia 27.2092
rfoot -20.6909 7.84181
rtoes 11.6475
lfemur -21.6066 -13.1446 -8.77322
ltibia 36.136
lfoot -2.29621 -36.9346
ltoes 34.8165
